<?xml version="1.0" encoding="UTF-8"?>
<svg id="_图层_1" xmlns="http://www.w3.org/2000/svg" version="1.1" viewBox="0 0 1024 1024">
  <!-- Generator: Adobe Illustrator 29.6.0, SVG Export Plug-In . SVG Version: 2.1.1 Build 207)  -->
  <defs>
    <style>
      .st0 {
        fill: #06c755;
      }
    </style>
  </defs>
  <path class="st0" d="M669.69,406.54c-98.15,31.68-181.33,98.12-233.94,186.83l-178.47,300.93h23.13l106.1-147.66,186.88-61.2c6.83-2.22,12.59-6.83,16.24-12.99l177.09-297.24-97.03,31.33h0Z"/>
  <path class="st0" d="M315.51,747.27l113.13-190.17c52.01-87.55,133.92-153.36,230.63-185.38l82.86-27.42c9.56-3.17,15.9-13.22,13.82-23.07l-37.12-175.19c-2.45-11.49-15.38-19.06-26.55-15.41l-214.07,70.47c-6.8,2.25-12.53,6.85-16.19,12.99l-57.4,96.4c-2.13,3.54-3.46,7.52-3.95,11.64l-17.22,158.23-20.96-99.01-85.91,144.29c-3.8,6.39-5.07,14-3.51,21.28l42.45,200.36h-.01Z"/>
</svg>